<svg width="104" height="91" viewBox="0 0 104 91" fill="none" xmlns="http://www.w3.org/2000/svg">
<path d="M22.5 90.1C16.3 90.1 11 87.6 6.6 82.6C2.2 77.4 2.12342e-07 70.9 2.12342e-07 63.1C2.12342e-07 51.9 3.7 40.2 11.1 28C18.7 15.8 28.2 6.59999 39.6 0.399987L48.3 18.4L47.1 19.6C42.1 23.8 38 27.8 34.8 31.6C31.6 35.2 29.3 40.1 27.9 46.3C31.3 46.3 34.9 48.5 38.7 52.9C42.5 57.3 44.4 62.3 44.4 67.9C44.4 73.1 42.3 78.1 38.1 82.9C33.9 87.7 28.7 90.1 22.5 90.1ZM78 90.1C71.8 90.1 66.5 87.6 62.1 82.6C57.7 77.4 55.5 70.9 55.5 63.1C55.5 51.9 59.2 40.2 66.6 28C74.2 15.8 83.6 6.59999 94.8 0.399987L103.8 18.4L102.6 19.6C97.6 23.8 93.5 27.8 90.3 31.6C87.1 35.2 84.8 40.1 83.4 46.3C86.6 46.3 90.2 48.5 94.2 52.9C98.2 57.3 100.2 62.3 100.2 67.9C100.2 73.1 98 78.1 93.6 82.9C89.4 87.7 84.2 90.1 78 90.1Z" fill="#F0F2F4"/>
</svg>
